<svg version="1.1" xmlns="http://www.w3.org/2000/svg" viewBox="0 0 1388.8566365551203 697">
  <!-- svg-source:excalidraw -->
  <defs>
    <style>
      @font-face {
        font-family: "Virgil";
        src: url("https://excalidraw.com/FG_Virgil.woff2");
      }
      @font-face {
        font-family: "Cascadia";
        src: url("https://excalidraw.com/Cascadia.woff2");
      }
    </style>
  </defs>
  <g transform="translate(399 10) rotate(0 308.5 18)"><text x="0" y="25" font-family="Virgil, Segoe UI Emoji" font-size="28px" fill="#000000" text-anchor="start" style="white-space: pre;" direction="ltr">Computer Science 102 - Discrete Structures</text></g><g><g transform="translate(119 418) rotate(0 629.4244601651654 0.25557045546679547)"><path d="M0.2960147570818663 -0.6716609012335538 C210.32498546354472 -1.0266892325133083, 1049.8292157601563 -1.1260414849966764, 1259.8566365551203 -1.0968477856367826 M-1.0077162247896196 1.5901131802797317 C208.8784428137541 1.8630627232789994, 1048.675935165286 0.03636352360248565, 1258.8333252829314 -0.13526762187480923" stroke="#000000" stroke-width="2" fill="none"></path></g><g transform="translate(119 418) rotate(0 629.4244601651654 0.25557045546679547)"><path d="M1229.538922754974 9.929734079686217 C1236.4493114373404 8.047912006824, 1245.1576541510892 4.313199760959829, 1259.2274156355113 -0.9998582350462675 M1230.3237451770538 10.092870290910117 C1241.852421804266 6.566098959150594, 1251.0912357862728 2.3424267188491585, 1258.717258217074 -0.8086036220565438" stroke="#000000" stroke-width="2" fill="none"></path></g><g transform="translate(119 418) rotate(0 629.4244601651654 0.25557045546679547)"><path d="M1229.5073675496053 -10.591450258817513 C1236.6030970116171 -6.8594171140344145, 1245.3200722101017 -4.9801963021995, 1259.2274156355113 -0.9998582350462675 M1230.292189971685 -10.428314047593613 C1241.9824130706372 -6.416908574934474, 1251.2328180867587 -3.102624875254973, 1258.717258217074 -0.8086036220565438" stroke="#000000" stroke-width="2" fill="none"></path></g></g><g transform="translate(15 268) rotate(0 52 36.70588235294116)"><text x="0" y="25.705882352941174" font-family="Virgil, Segoe UI Emoji" font-size="28.549019607843135px" fill="#000000" text-anchor="start" style="white-space: pre;" direction="ltr">Team A</text><text x="0" y="62.41176470588235" font-family="Virgil, Segoe UI Emoji" font-size="28.549019607843135px" fill="#000000" text-anchor="start" style="white-space: pre;" direction="ltr"></text></g><g transform="translate(10 509) rotate(0 52 36)"><text x="0" y="25" font-family="Virgil, Segoe UI Emoji" font-size="28px" fill="#000000" text-anchor="start" style="white-space: pre;" direction="ltr">Team B</text><text x="0" y="61" font-family="Virgil, Segoe UI Emoji" font-size="28px" fill="#000000" text-anchor="start" style="white-space: pre;" direction="ltr"></text></g><g transform="translate(270 121.5) rotate(0 47.5 18)"><text x="0" y="25" font-family="Virgil, Segoe UI Emoji" font-size="28px" fill="#000000" text-anchor="start" style="white-space: pre;" direction="ltr">Monday</text></g><g transform="translate(625.5 123) rotate(0 70.5 18)"><text x="0" y="25" font-family="Virgil, Segoe UI Emoji" font-size="28px" fill="#000000" text-anchor="start" style="white-space: pre;" direction="ltr">Wednesday</text></g><g transform="translate(246 278.5) rotate(0 79.5 25.5)"><text x="0" y="18.5" font-family="Virgil, Segoe UI Emoji" font-size="20px" fill="#000000" text-anchor="start" style="white-space: pre;" direction="ltr">In-Person Class</text><text x="0" y="44" font-family="Virgil, Segoe UI Emoji" font-size="20px" fill="#000000" text-anchor="start" style="white-space: pre;" direction="ltr">Remote Lab</text></g><g transform="translate(601.5 280) rotate(0 99.5 25.5)"><text x="0" y="18.5" font-family="Virgil, Segoe UI Emoji" font-size="20px" fill="#000000" text-anchor="start" style="white-space: pre;" direction="ltr">No In-Person Class</text><text x="0" y="44" font-family="Virgil, Segoe UI Emoji" font-size="20px" fill="#000000" text-anchor="start" style="white-space: pre;" direction="ltr">Work on Assignments</text></g><g transform="translate(243.5 505.5) rotate(0 96.5 25.5)"><text x="0" y="18.5" font-family="Virgil, Segoe UI Emoji" font-size="20px" fill="#000000" text-anchor="start" style="white-space: pre;" direction="ltr">No In-Person Class</text><text x="0" y="44" font-family="Virgil, Segoe UI Emoji" font-size="20px" fill="#000000" text-anchor="start" style="white-space: pre;" direction="ltr">Remote Lab</text></g><g transform="translate(599 507) rotate(0 99.5 25.5)"><text x="0" y="18.5" font-family="Virgil, Segoe UI Emoji" font-size="20px" fill="#000000" text-anchor="start" style="white-space: pre;" direction="ltr">In-Person Class</text><text x="0" y="44" font-family="Virgil, Segoe UI Emoji" font-size="20px" fill="#000000" text-anchor="start" style="white-space: pre;" direction="ltr">Work on Assignments</text></g><g><g transform="translate(519 230) rotate(0 0.4504449249431559 190.0134298114851)"><path d="M-0.5148401666432619 0.15031596310436734 C-0.39969583041965967 63.615903145944074, 0.6762854885309934 317.64348354625207, 0.7018550109118222 380.84323172457516 M1.4157300165295603 -0.8163721016049386 C1.4333038404583933 62.313016100426516, 0.5777165010571479 315.6398891962568, 0.1222834280133247 379.1633536311984" stroke="#000000" stroke-width="2" fill="none"></path></g></g><g><g transform="translate(910 230) rotate(0 0.36411031697878116 189.65175652603625)"><path d="M1.043198453262448 -0.5674625683575868 C0.7175589311867951 62.62050065112611, -0.4248715531080961 315.29192658575874, -0.7856371890753507 378.9072461437434 M0.13173891188576814 1.7490156379155817 C0.08711735190823666 65.06502729582911, 1.338452012557536 316.9337648315045, 1.5138578230328856 379.87097562043" stroke="#000000" stroke-width="2" fill="none"></path></g></g><g transform="translate(1039 279) rotate(0 103.5 25.5)"><text x="0" y="18.5" font-family="Virgil, Segoe UI Emoji" font-size="20px" fill="#000000" text-anchor="start" style="white-space: pre;" direction="ltr">Technical Assessment</text><text x="0" y="44" font-family="Virgil, Segoe UI Emoji" font-size="20px" fill="#000000" text-anchor="start" style="white-space: pre;" direction="ltr">Remote Practical</text></g><g transform="translate(1079.5 127) rotate(0 42 18)"><text x="0" y="25" font-family="Virgil, Segoe UI Emoji" font-size="28px" fill="#000000" text-anchor="start" style="white-space: pre;" direction="ltr">Friday</text></g><g transform="translate(1042.5 506.5) rotate(0 103.5 25.5)"><text x="0" y="18.5" font-family="Virgil, Segoe UI Emoji" font-size="20px" fill="#000000" text-anchor="start" style="white-space: pre;" direction="ltr">Technical Assessment</text><text x="0" y="44" font-family="Virgil, Segoe UI Emoji" font-size="20px" fill="#000000" text-anchor="start" style="white-space: pre;" direction="ltr">Remote Practical</text></g><g transform="translate(401 662) rotate(0 427.5 12)"><text x="0" y="20" font-family="Cascadia, Segoe UI Emoji" font-size="20px" fill="#000000" text-anchor="start" style="white-space: pre;" direction="ltr">https://github.com/Allegheny-Computer-Science-102-F2020/cs102-F2020-plans</text></g><g transform="translate(249 661) rotate(0 67 13)"><text x="0" y="18" font-family="Virgil, Segoe UI Emoji" font-size="20px" fill="#000000" text-anchor="start" style="white-space: pre;" direction="ltr">More Details:</text></g></svg>